<svg width="12" height="13" viewBox="0 0 12 13" fill="none" xmlns="http://www.w3.org/2000/svg">
<path d="M7.99885 2.30005H10.2945C10.4073 2.30033 10.4987 2.39172 10.499 2.50455L10.499 11.096C10.4987 11.2088 10.4073 11.3002 10.2945 11.3005H7.99885C7.58462 11.3005 7.24882 11.6363 7.24882 12.0505C7.24882 12.4647 7.58462 12.8005 7.99885 12.8005H10.2945C11.2354 12.7994 11.9979 12.0369 11.999 11.096L11.999 2.50457C11.9979 1.56361 11.2354 0.801078 10.2945 0.799976H7.99885C7.58462 0.799976 7.24882 1.13578 7.24882 1.55001C7.24882 1.96424 7.58462 2.30005 7.99885 2.30005Z" fill="#FF6666"/>
<path d="M0.657609 8.39144L2.5987 10.331C2.89171 10.6239 3.36664 10.6238 3.65951 10.3308C3.95237 10.0378 3.95226 9.56283 3.65925 9.26996L1.95318 7.56438L8.74899 7.55039C9.16322 7.55039 9.49902 7.21458 9.49902 6.80035C9.49902 6.38612 9.16322 6.05032 8.74899 6.05032L1.92566 6.06281L3.65925 4.32923C3.9415 4.02602 3.9245 3.55144 3.62133 3.26919C3.33315 3.00094 2.88662 3.00115 2.5987 3.26968L0.659109 5.20927C-0.219627 6.08799 -0.219628 7.51268 0.659085 8.39139L0.659109 8.39141L0.657609 8.39144Z" fill="#FF6666"/>
</svg>
