<svg width="340" height="340" viewBox="0 0 340 340" fill="none" xmlns="http://www.w3.org/2000/svg">
<rect width="340" height="340" rx="50" fill="#ECECEC"/>
<rect x="100" y="188" width="20" height="48" rx="10" fill="#B2FFC8"/>
<path d="M140 150C140 144.477 144.477 140 150 140V140C155.523 140 160 144.477 160 150V226C160 231.523 155.523 236 150 236V236C144.477 236 140 231.523 140 226V150Z" fill="#FF6666" fill-opacity="0.5"/>
<path d="M220 114C220 108.477 224.477 104 230 104V104C235.523 104 240 108.477 240 114V226C240 231.523 235.523 236 230 236V236C224.477 236 220 231.523 220 226V114Z" fill="#FF6666" fill-opacity="0.5"/>
<path d="M180 174C180 168.477 184.477 164 190 164V164C195.523 164 200 168.477 200 174V226C200 231.523 195.523 236 190 236V236C184.477 236 180 231.523 180 226V174Z" fill="#FFDF8C" fill-opacity="0.5"/>
</svg>
