<svg width="340" height="340" viewBox="0 0 340 340" fill="none" xmlns="http://www.w3.org/2000/svg">
<path d="M0 50C0 22.3858 22.3858 0 50 0H290C317.614 0 340 22.3858 340 50V290C340 317.614 317.614 340 290 340H50C22.3858 340 0 317.614 0 290V50Z" fill="#ECECEC"/>
<rect x="75" y="180" width="20" height="48" rx="10" transform="rotate(-90 75 180)" fill="#B2FFC8"/>
<path d="M115 180C109.477 180 105 175.523 105 170V170C105 164.477 109.477 160 115 160H167C172.523 160 177 164.477 177 170V170C177 175.523 172.523 180 167 180H115Z" fill="#FFDF8C" fill-opacity="0.5"/>
<path d="M173 180C167.477 180 163 175.523 163 170V170C163 164.477 167.477 160 173 160H260C265.523 160 270 164.477 270 170V170C270 175.523 265.523 180 260 180H173Z" fill="#FF6666" fill-opacity="0.5"/>
<rect x="101" y="155" width="30" height="30" rx="15" fill="white"/>
<rect x="153" y="155" width="30" height="30" rx="15" fill="white"/>
</svg>
