<svg width="79" height="64" viewBox="0 0 79 64" fill="none" xmlns="http://www.w3.org/2000/svg">
<path d="M39.58 57.126C38.704 57.126 37.912 56.976 37.204 56.676C36.508 56.376 35.956 55.944 35.548 55.38C35.14 54.816 34.93 54.15 34.918 53.382H37.618C37.654 53.898 37.834 54.306 38.158 54.606C38.494 54.906 38.95 55.056 39.526 55.056C40.114 55.056 40.576 54.918 40.912 54.642C41.248 54.354 41.416 53.982 41.416 53.526C41.416 53.154 41.302 52.848 41.074 52.608C40.846 52.368 40.558 52.182 40.21 52.05C39.874 51.906 39.406 51.75 38.806 51.582C37.99 51.342 37.324 51.108 36.808 50.88C36.304 50.64 35.866 50.286 35.494 49.818C35.134 49.338 34.954 48.702 34.954 47.91C34.954 47.166 35.14 46.518 35.512 45.966C35.884 45.414 36.406 44.994 37.078 44.706C37.75 44.406 38.518 44.256 39.382 44.256C40.678 44.256 41.728 44.574 42.532 45.21C43.348 45.834 43.798 46.71 43.882 47.838H41.11C41.086 47.406 40.9 47.052 40.552 46.776C40.216 46.488 39.766 46.344 39.202 46.344C38.71 46.344 38.314 46.47 38.014 46.722C37.726 46.974 37.582 47.34 37.582 47.82C37.582 48.156 37.69 48.438 37.906 48.666C38.134 48.882 38.41 49.062 38.734 49.206C39.07 49.338 39.538 49.494 40.138 49.674C40.954 49.914 41.62 50.154 42.136 50.394C42.652 50.634 43.096 50.994 43.468 51.474C43.84 51.954 44.026 52.584 44.026 53.364C44.026 54.036 43.852 54.66 43.504 55.236C43.156 55.812 42.646 56.274 41.974 56.622C41.302 56.958 40.504 57.126 39.58 57.126ZM47.3268 57.126C46.8708 57.126 46.4928 56.988 46.1928 56.712C45.9048 56.424 45.7608 56.07 45.7608 55.65C45.7608 55.23 45.9048 54.882 46.1928 54.606C46.4928 54.318 46.8708 54.174 47.3268 54.174C47.7708 54.174 48.1368 54.318 48.4248 54.606C48.7128 54.882 48.8568 55.23 48.8568 55.65C48.8568 56.07 48.7128 56.424 48.4248 56.712C48.1368 56.988 47.7708 57.126 47.3268 57.126ZM61.6325 57H59.1125L53.4065 48.378V57H50.8865V44.418H53.4065L59.1125 53.058V44.418H61.6325V57ZM65.2389 57.126C64.7829 57.126 64.4049 56.988 64.1049 56.712C63.8169 56.424 63.6729 56.07 63.6729 55.65C63.6729 55.23 63.8169 54.882 64.1049 54.606C64.4049 54.318 64.7829 54.174 65.2389 54.174C65.6829 54.174 66.0489 54.318 66.3369 54.606C66.6249 54.882 66.7689 55.23 66.7689 55.65C66.7689 56.07 66.6249 56.424 66.3369 56.712C66.0489 56.988 65.6829 57.126 65.2389 57.126ZM73.1366 57.126C72.2606 57.126 71.4686 56.976 70.7606 56.676C70.0646 56.376 69.5126 55.944 69.1046 55.38C68.6966 54.816 68.4866 54.15 68.4746 53.382H71.1746C71.2106 53.898 71.3906 54.306 71.7146 54.606C72.0506 54.906 72.5066 55.056 73.0826 55.056C73.6706 55.056 74.1326 54.918 74.4686 54.642C74.8046 54.354 74.9726 53.982 74.9726 53.526C74.9726 53.154 74.8586 52.848 74.6306 52.608C74.4026 52.368 74.1146 52.182 73.7666 52.05C73.4306 51.906 72.9626 51.75 72.3626 51.582C71.5466 51.342 70.8806 51.108 70.3646 50.88C69.8606 50.64 69.4226 50.286 69.0506 49.818C68.6906 49.338 68.5106 48.702 68.5106 47.91C68.5106 47.166 68.6966 46.518 69.0686 45.966C69.4406 45.414 69.9626 44.994 70.6346 44.706C71.3066 44.406 72.0746 44.256 72.9386 44.256C74.2346 44.256 75.2846 44.574 76.0886 45.21C76.9046 45.834 77.3546 46.71 77.4386 47.838H74.6666C74.6426 47.406 74.4566 47.052 74.1086 46.776C73.7726 46.488 73.3226 46.344 72.7586 46.344C72.2666 46.344 71.8706 46.47 71.5706 46.722C71.2826 46.974 71.1386 47.34 71.1386 47.82C71.1386 48.156 71.2466 48.438 71.4626 48.666C71.6906 48.882 71.9666 49.062 72.2906 49.206C72.6266 49.338 73.0946 49.494 73.6946 49.674C74.5106 49.914 75.1766 50.154 75.6926 50.394C76.2086 50.634 76.6526 50.994 77.0246 51.474C77.3966 51.954 77.5826 52.584 77.5826 53.364C77.5826 54.036 77.4086 54.66 77.0606 55.236C76.7126 55.812 76.2026 56.274 75.5306 56.622C74.8586 56.958 74.0606 57.126 73.1366 57.126Z" fill="black"/>
<line x1="2.5" y1="24.5928" x2="2.5" y2="22.4998" stroke="black" stroke-width="5" stroke-linecap="round"/>
<line x1="57.5" y1="27.5" x2="57.5" y2="20.5" stroke="black" stroke-width="5" stroke-linecap="round"/>
<line x1="11.5" y1="34.5" x2="11.5" y2="13.5" stroke="black" stroke-width="5" stroke-linecap="round"/>
<line x1="20.5" y1="45.5" x2="20.5" y2="2.5" stroke="black" stroke-width="5" stroke-linecap="round"/>
<path d="M30 40L30 8" stroke="black" stroke-width="5" stroke-linecap="round"/>
<line x1="39.5" y1="32.5" x2="39.5" y2="14.5" stroke="black" stroke-width="5" stroke-linecap="round"/>
<line x1="48.5" y1="37.5" x2="48.5" y2="9.5" stroke="black" stroke-width="5" stroke-linecap="round"/>
</svg>
