<svg width="9" height="14" viewBox="0 0 9 14" fill="none" xmlns="http://www.w3.org/2000/svg">
<path d="M5.53631 6.66961C5.58761 6.71295 5.6283 6.76445 5.65607 6.82115C5.68384 6.87784 5.69813 6.93862 5.69813 7C5.69813 7.06138 5.68384 7.12216 5.65607 7.17886C5.6283 7.23555 5.58761 7.28705 5.53631 7.33039L0.4843 11.6097C0.174311 11.8722 0.000103278 12.2282 -1.55624e-08 12.5996C-0.000103309 12.9709 0.173907 13.3271 0.483749 13.5897C0.793592 13.8523 1.21389 13.9999 1.65217 14C2.09046 14.0001 2.51084 13.8527 2.82083 13.5902L7.87284 9.30996C8.59466 8.69674 9 7.86604 9 7C9 6.13396 8.59466 5.30326 7.87284 4.69004L2.82083 0.409845C2.51084 0.147338 2.09046 -8.74069e-05 1.65217 1.11324e-07C1.21389 8.76296e-05 0.793592 0.147683 0.483749 0.410313C0.173907 0.672944 -0.000103309 1.0291 -1.55624e-08 1.40042C0.000103278 1.77175 0.174311 2.12784 0.4843 2.39035L5.53631 6.66961Z" fill="#363636"/>
</svg>
